HIERARCHY
ROOT root
{
	OFFSET 0.000000 0.000000 0.000000
	CHANNELS 6 Xposition Yposition Zposition Zrotation Yrotation Xrotation
	JOINT lhip
	{
		OFFSET 0.058581 -0.082280 -0.017664
		CHANNELS 3 Zrotation Yrotation Xrotation
		JOINT lknee
		{
			OFFSET 0.043451 -0.386469 0.008037
			CHANNELS 3 Zrotation Yrotation Xrotation
			JOINT lankle
			{
				OFFSET -0.014790 -0.426874 -0.037428
				CHANNELS 3 Zrotation Yrotation Xrotation
				JOINT ltoe
				{
					OFFSET 0.041054 -0.060286 0.122042
					CHANNELS 3 Zrotation Yrotation Xrotation
					End Site
					{
						OFFSET 0.000000 0.000000 0.000000
					}
				}
			}
		}
	}
	JOINT rhip
	{
		OFFSET -0.060310 -0.090513 -0.013543
		CHANNELS 3 Zrotation Yrotation Xrotation
		JOINT rknee
		{
			OFFSET -0.043257 -0.383688 -0.004843
			CHANNELS 3 Zrotation Yrotation Xrotation
			JOINT rankle
			{
				OFFSET 0.019056 -0.420046 -0.034562
				CHANNELS 3 Zrotation Yrotation Xrotation
				JOINT rtoe
				{
					OFFSET -0.034840 -0.062106 0.130323
					CHANNELS 3 Zrotation Yrotation Xrotation
					End Site
					{
						OFFSET 0.000000 0.000000 0.000000
					}
				}
			}
		}
	}
	JOINT lowerback
	{
		OFFSET 0.004439 0.124404 -0.038385
		CHANNELS 3 Zrotation Yrotation Xrotation
		JOINT upperback
		{
			OFFSET 0.004488 0.137956 0.026820
			CHANNELS 3 Zrotation Yrotation Xrotation
			JOINT chest
			{
				OFFSET -0.002265 0.056032 0.002855
				CHANNELS 3 Zrotation Yrotation Xrotation
				JOINT lowerneck
				{
					OFFSET -0.013390 0.211636 -0.033468
					CHANNELS 3 Zrotation Yrotation Xrotation
					JOINT upperneck
					{
						OFFSET 0.010113 0.088937 0.050410
						CHANNELS 3 Zrotation Yrotation Xrotation
						End Site
						{
							OFFSET 0.000000 0.000000 0.000000
						}
					}
				}
				JOINT lclavicle
				{
					OFFSET 0.071702 0.114000 -0.018898
					CHANNELS 3 Zrotation Yrotation Xrotation
					JOINT lshoulder
					{
						OFFSET 0.122921 0.045205 -0.019046
						CHANNELS 3 Zrotation Yrotation Xrotation
						JOINT lelbow
						{
							OFFSET 0.255332 -0.015649 -0.022946
							CHANNELS 3 Zrotation Yrotation Xrotation
							JOINT lwrist
							{
								OFFSET 0.265709 0.012698 -0.007375
								CHANNELS 3 Zrotation Yrotation Xrotation
								End Site
								{
									OFFSET 0.000000 0.000000 0.000000
								}
							}
						}
					}
				}
				JOINT rclavicle
				{
					OFFSET -0.082954 0.112472 -0.023707
					CHANNELS 3 Zrotation Yrotation Xrotation
					JOINT rshoulder
					{
						OFFSET -0.113228 0.046853 -0.008472
						CHANNELS 3 Zrotation Yrotation Xrotation
						JOINT relbow
						{
							OFFSET -0.260127 -0.014369 -0.031269
							CHANNELS 3 Zrotation Yrotation Xrotation
							JOINT rwrist
							{
								OFFSET -0.269108 0.006794 -0.006027
								CHANNELS 3 Zrotation Yrotation Xrotation
								End Site
								{
									OFFSET 0.000000 0.000000 0.000000
								}
							}
						}
					}
				}
			}
		}
	}
}
MOTION
Frames: 5
Frame Time: 0.033333
-1.878632 0.528993 0.982560 96.617649 1.102763 87.770138 10.207070 -0.048319 -8.922400 -4.517531 7.602282 31.779582 0.721990 15.400278 -25.020789 0.000000 -0.000000 0.000000 -1.967487 -7.451434 -6.119911 0.334976 -12.674310 17.074496 0.824667 -8.900208 -12.496791 0.000000 -0.000000 0.000000 -0.288816 2.747995 11.018196 2.928318 0.669361 2.262102 2.045928 0.169085 1.764082 -1.253874 3.949441 -12.117298 -0.095651 -2.491156 0.444298 -22.380651 1.861675 3.307425 -53.152543 -7.400276 24.614790 -108.164917 -76.795994 125.978391 8.889724 -13.378743 -38.467343 28.551490 5.835712 5.442772 49.571722 7.679479 18.375340 -1.402231 32.038249 8.430004 -2.914135 9.773984 2.527731 
-1.873444 0.521708 0.983976 94.933902 0.223197 86.468094 9.195979 1.340319 -10.133895 -3.249474 9.777747 36.487471 2.607530 16.217154 -22.978202 0.000000 -0.000000 0.000000 -2.505495 -7.760621 -4.019960 0.821335 -10.823268 15.896474 0.780717 -8.894676 -12.609967 0.000000 -0.000000 0.000000 -0.589596 3.504528 12.102203 2.526850 0.675811 2.982031 1.896554 0.336457 1.697464 -1.384027 2.694313 -12.869667 0.234941 -2.776867 -0.316542 -22.987443 1.006686 3.048818 -52.869418 -7.022422 22.819544 -74.422667 -77.477986 94.436432 8.089102 -12.376730 -32.684905 28.338856 6.575259 5.544141 49.440152 7.777002 17.360917 -1.418495 32.393301 8.670627 -3.064501 9.726868 2.571231 
-1.871067 0.515437 0.985864 93.738129 -0.285956 85.758801 7.921036 1.726601 -11.296223 -3.327554 9.936084 39.402574 4.062585 15.842022 -22.538875 0.000000 -0.000000 0.000000 -2.636561 -8.085688 -2.785519 0.960449 -9.728364 14.866274 0.611884 -8.379120 -12.431193 0.000000 -0.000000 0.000000 -0.307618 4.099547 13.088798 2.088491 0.558605 2.999367 1.664351 0.307133 1.636511 -1.408225 1.864623 -13.331834 0.385838 -2.953522 -0.911127 -23.718841 -0.038296 2.916419 -52.730279 -6.684007 21.279648 -45.701990 -74.411617 67.621505 7.521241 -11.858753 -27.176298 28.065648 7.233934 5.418128 49.260170 7.788899 16.404756 -1.333693 32.433342 9.077721 -3.393064 9.806927 2.073938 
-1.865998 0.509970 0.988223 92.263915 -0.724496 85.535941 5.801957 1.030861 -11.678050 -7.042916 5.931157 39.685978 3.478330 12.105276 -24.220829 0.000000 -0.000000 0.000000 -2.564722 -8.107149 -1.612808 0.880176 -8.568488 13.225573 0.936297 -7.853432 -12.217979 0.000000 -0.000000 0.000000 0.134466 4.487596 13.467279 1.678512 0.342699 2.378137 1.296307 0.331838 1.671125 -1.370742 1.597312 -13.285631 0.231380 -3.241268 -1.255564 -24.452062 -0.337978 2.459618 -53.455377 -5.644882 20.029803 -26.846305 -67.915229 50.175440 8.858744 -11.700015 -20.902862 27.627342 7.280189 4.866514 49.247245 7.445639 15.787793 -0.971926 32.301805 10.294574 -4.260965 10.090485 1.283854 
-1.861993 0.508164 0.989490 91.466321 -0.941645 85.470774 4.266720 -0.342339 -11.459419 -9.626542 2.934700 38.687909 2.846427 9.543287 -25.416545 0.000000 -0.000000 0.000000 -2.545195 -7.644432 -0.852990 0.828371 -7.953407 12.294284 1.224394 -7.926240 -12.193253 0.000000 -0.000000 0.000000 0.467482 4.646020 13.414559 1.483775 0.185535 1.998546 1.065893 0.290993 1.747891 -1.365505 1.674508 -13.173333 -0.062150 -3.456184 -1.287475 -24.699525 -0.255929 2.139011 -54.128907 -4.951004 19.617287 -20.101478 -63.474793 43.798086 9.079740 -11.963982 -18.192426 27.336775 6.996880 4.410972 49.324375 7.084540 15.750961 -0.965328 32.317252 10.879414 -4.524043 10.254216 0.802648 
